<svg xmlns="http://www.w3.org/2000/svg" aria-hidden="true" style="position:absolute;width:0;height:0;overflow:hidden">
  <defs>
    <symbol id="icon-google" viewBox="0 0 32 32">
      <path d="M31.36 16.364c0-1.135-.102-2.225-.291-3.273H16v6.189h8.611c-.371 2-1.498 3.695-3.193 4.829v4.015h5.171c3.025-2.785 4.771-6.887 4.771-11.76z"/>
      <path d="M15.999 32c4.32 0 7.942-1.433 10.589-3.876l-5.171-4.015c-1.433.96-3.265 1.527-5.418 1.527-4.167 0-7.695-2.815-8.953-6.596H1.701v4.146c2.633 5.229 8.044 8.815 14.298 8.815z"/>
      <path d="M7.047 19.04c-.32-.96-.502-1.986-.502-3.04s.182-2.08.502-3.04V8.815H1.702C.618 10.975 0 13.419 0 16s.618 5.026 1.702 7.186l5.345-4.145z"/>
      <path d="M15.999 6.364c2.349 0 4.458.807 6.116 2.393l4.589-4.589C23.933 1.586 20.311.001 15.999.001 9.744.001 4.334 3.586 1.701 8.816l5.345 4.145c1.258-3.782 4.785-6.596 8.953-6.596z"/>
    </symbol>
    <symbol id="icon-telegram" viewBox="0 0 36 32">
      <path d="m35.765 1.134-5.657 29.534s-.792 2.048-2.966 1.066L14.089 21.37l-.061-.03C15.791 19.7 29.463 6.971 30.061 6.394c.925-.894.351-1.426-.723-.751L9.143 18.924l-7.791-2.715S.126 15.757.008 14.775c-.119-.984 1.384-1.516 1.384-1.516L33.155.356s2.611-1.188 2.611.778z"/>
    </symbol>
    <symbol id="icon-close" viewBox="0 0 32 32">
      <path stroke-linecap="round" stroke-linejoin="round" stroke-width="2" d="M24 8 8 24M8 8l16 16"/>
    </symbol>
    <symbol id="icon-git" viewBox="0 0 32 32">
      <path stroke-linecap="round" stroke-linejoin="round" stroke-width="2.807" d="M19.385 29.474V23.86a6.74 6.74 0 0 0-1.403-4.912c4.21 0 8.421-2.807 8.421-7.719A7.587 7.587 0 0 0 25 6.317a10.38 10.38 0 0 0 0-4.912s-1.404 0-4.211 2.105a30.194 30.194 0 0 0-11.228 0C6.754 1.405 5.35 1.405 5.35 1.405a9.71 9.71 0 0 0 0 4.912 7.586 7.586 0 0 0-1.404 4.912c0 4.912 4.211 7.719 8.421 7.719a6.635 6.635 0 0 0-1.404 4.913v5.614"/>
    </symbol>
    <symbol id="icon-mes" viewBox="0 0 32 32">
      <path stroke-linecap="round" stroke-linejoin="round" stroke-width="2.667" d="m29.333 9.333-11.988 7.636a2.667 2.667 0 0 1-2.679 0l-12-7.636"/>
      <path stroke-linecap="round" stroke-linejoin="round" stroke-width="2.667" d="M5.333 5.333h21.333A2.667 2.667 0 0 1 29.333 8v16a2.667 2.667 0 0 1-2.667 2.667H5.333A2.667 2.667 0 0 1 2.666 24V8a2.667 2.667 0 0 1 2.667-2.667"/>
    </symbol>
    <symbol id="icon-burger" viewBox="0 0 32 32">
      <path stroke-linecap="round" stroke-linejoin="round" stroke-width="2.667" d="M5.333 6.667h21.333M5.333 16h21.333M5.333 25.333h21.333"/>
    </symbol>
    <symbol id="icon-download" viewBox="0 0 32 32">
      <path stroke-linecap="round" stroke-linejoin="round" stroke-width="2.667" d="M16 20V4m12 16v5.333A2.668 2.668 0 0 1 25.333 28H6.666a2.668 2.668 0 0 1-2.667-2.667V20"/>
      <path stroke-linecap="round" stroke-linejoin="round" stroke-width="2.667" d="M9.333 13.333 16 20l6.667-6.667"/>
    </symbol>
    <symbol id="icon-file" viewBox="0 0 32 32">
      <path d="M28.681 7.159c-.694-.947-1.662-2.053-2.724-3.116s-2.169-2.03-3.116-2.724C21.229.137 20.448 0 20 0H4.5A2.503 2.503 0 0 0 2 2.5v27C2 30.878 3.122 32 4.5 32h23c1.378 0 2.5-1.122 2.5-2.5V10c0-.448-.137-1.23-1.319-2.841zm-4.138-1.702A27.334 27.334 0 0 1 26.811 8H22V3.189a27.334 27.334 0 0 1 2.543 2.268zM28 29.5c0 .271-.229.5-.5.5h-23a.507.507 0 0 1-.5-.5v-27c0-.271.229-.5.5-.5H20v7a1 1 0 0 0 1 1h7v19.5z"/>
      <path d="M23 26H9a1 1 0 0 1 0-2h14a1 1 0 0 1 0 2zM23 22H9a1 1 0 0 1 0-2h14a1 1 0 0 1 0 2zM23 18H9a1 1 0 0 1 0-2h14a1 1 0 0 1 0 2z"/>
    </symbol>
    <symbol id="icon-phone" viewBox="0 0 32 32">
      <path d="M22 20c-2 2-2 4-4 4s-4-2-6-4-4-4-4-6 2-2 4-4-4-8-6-8-6 6-6 6c0 4 4.109 12.109 8 16s12 8 16 8c0 0 6-4 6-6s-6-8-8-6z"/>
    </symbol>
    <symbol id="icon-phone-hang-up" viewBox="0 0 32 32">
      <path d="M31.793 18c.25 1.734.413 4.106-.364 5.014-1.286 1.501-9.428 1.501-9.428-1.501 0-1.512 1.339-2.504.053-4.006-1.265-1.477-3.532-1.501-6.054-1.501s-4.789.024-6.054 1.501C8.66 19.008 10 20 10 21.513c0 3.003-8.143 3.003-9.429 1.501-.777-.908-.615-3.28-.364-5.014.193-1.157.679-2.406 2.236-4 2.336-2.179 5.87-3.961 13.432-3.999V10h.25v.001c7.562.038 11.096 1.82 13.432 3.999 1.557 1.594 2.043 2.842 2.236 4z"/>
    </symbol>
    <symbol id="icon-mobile" viewBox="0 0 32 32">
      <path d="M23 0H9C7.35 0 6 1.35 6 3v26c0 1.65 1.35 3 3 3h14c1.65 0 3-1.35 3-3V3c0-1.65-1.35-3-3-3zM12 1.5h8v1h-8v-1zM16 30a2 2 0 1 1-.001-3.999A2 2 0 0 1 16 30zm8-6H8V4h16v20z"/>
    </symbol>
    <symbol id="icon-mobile2" viewBox="0 0 32 32">
      <path d="M24 0H6C4.9 0 4 .9 4 2v28c0 1.1.9 2 2 2h18c1.1 0 2-.9 2-2V2c0-1.1-.9-2-2-2zm-9 30.556a1.556 1.556 0 1 1 0-3.113 1.556 1.556 0 0 1 0 3.113zM24 26H6V4h18v22z"/>
    </symbol>
    <symbol id="icon-search" viewBox="0 0 32 32">
      <path d="m31.008 27.231-7.58-6.447c-.784-.705-1.622-1.029-2.299-.998a11.954 11.954 0 0 0 2.87-7.787c0-6.627-5.373-12-12-12s-12 5.373-12 12 5.373 12 12 12c2.972 0 5.691-1.081 7.787-2.87-.031.677.293 1.515.998 2.299l6.447 7.58c1.104 1.226 2.907 1.33 4.007.23s.997-2.903-.23-4.007zM12 20a8 8 0 1 1 0-16 8 8 0 0 1 0 16z"/>
    </symbol>
    <symbol id="icon-bug" viewBox="0 0 32 32">
      <path d="M32 18v-2h-6.04c-.183-2.271-.993-4.345-2.24-6.008h5.061l2.189-8.758-1.94-.485-1.811 7.242H21.76l-.084-.064c.21-.609.324-1.263.324-1.944 0-3.305-2.686-5.984-6-5.984s-6 2.679-6 5.984c0 .68.114 1.334.324 1.944l-.084.064H4.781L2.97.749l-1.94.485 2.189 8.758H8.28C7.034 11.655 6.224 13.728 6.04 16H0v2h6.043a11.782 11.782 0 0 0 1.051 3.992H3.219L1.03 30.749l1.94.485 1.811-7.243h3.511c1.834 2.439 4.606 3.992 7.708 3.992s5.874-1.554 7.708-3.992h3.511l1.811 7.243 1.94-.485-2.189-8.757h-3.875A11.76 11.76 0 0 0 25.957 18H32z"/>
    </symbol>
    <symbol id="icon-cross" viewBox="0 0 32 32">
      <path d="M31.708 25.708 22 16l9.708-9.708a1 1 0 0 0 0-1.414L27.122.292a1 1 0 0 0-1.414-.001L16 9.999 6.292.291a.998.998 0 0 0-1.414.001L.292 4.878a1 1 0 0 0 0 1.414L10 16 .292 25.708a.999.999 0 0 0 0 1.414l4.586 4.586a1 1 0 0 0 1.414 0L16 22l9.708 9.708a1 1 0 0 0 1.414 0l4.586-4.586a.999.999 0 0 0 0-1.414z"/>
    </symbol>
    <symbol id="icon-checkmark" viewBox="0 0 32 32">
      <path d="M27 4 12 19l-7-7-5 5 12 12L32 9z"/>
    </symbol>
    <symbol id="icon-play3" viewBox="0 0 32 32">
      <path d="m6 4 20 12L6 28z"/>
    </symbol>
    <symbol id="icon-right" viewBox="0 0 32 32">
      <path d="M31 16 16 1v9H0v12h16v9z"/>
    </symbol>
    <symbol id="icon-left" viewBox="0 0 32 32">
      <path d="m1 16 15 15v-9h16V10H16V1z"/>
    </symbol>
    <symbol id="icon-arrow-right2" viewBox="0 0 32 32">
      <path d="m19.414 27.414 10-10a2 2 0 0 0 0-2.828l-10-10a2 2 0 1 0-2.828 2.828L23.172 14H4a2 2 0 1 0 0 4h19.172l-6.586 6.586c-.39.39-.586.902-.586 1.414s.195 1.024.586 1.414a2 2 0 0 0 2.828 0z"/>
    </symbol>
    <symbol id="icon-arrow-left2" viewBox="0 0 32 32">
      <path d="m12.586 27.414-10-10a2 2 0 0 1 0-2.828l10-10a2 2 0 1 1 2.828 2.828L8.828 14H28a2 2 0 1 1 0 4H8.828l6.586 6.586c.39.39.586.902.586 1.414s-.195 1.024-.586 1.414a2 2 0 0 1-2.828 0z"/>
    </symbol>
    <symbol id="icon-google-plus" viewBox="0 0 32 32">
      <path d="M10.181 14.294v3.494h5.775c-.231 1.5-1.744 4.394-5.775 4.394-3.475 0-6.313-2.881-6.313-6.431S6.706 9.32 10.181 9.32c1.981 0 3.3.844 4.056 1.569l2.762-2.662c-1.775-1.656-4.075-2.662-6.819-2.662C4.549 5.571-.001 10.121-.001 15.753s4.55 10.181 10.181 10.181c5.875 0 9.775-4.131 9.775-9.95a9.27 9.27 0 0 0-.163-1.688h-9.613zM32 14h-3v-3h-3v3h-3v3h3v3h3v-3h3z"/>
    </symbol>
    <symbol id="icon-github" viewBox="0 0 32 32">
      <path d="M16 .395c-8.836 0-16 7.163-16 16 0 7.069 4.585 13.067 10.942 15.182.8.148 1.094-.347 1.094-.77 0-.381-.015-1.642-.022-2.979-4.452.968-5.391-1.888-5.391-1.888-.728-1.849-1.776-2.341-1.776-2.341-1.452-.993.11-.973.11-.973 1.606.113 2.452 1.649 2.452 1.649 1.427 2.446 3.743 1.739 4.656 1.33.143-1.034.558-1.74 1.016-2.14-3.554-.404-7.29-1.777-7.29-7.907 0-1.747.625-3.174 1.649-4.295-.166-.403-.714-2.03.155-4.234 0 0 1.344-.43 4.401 1.64a15.353 15.353 0 0 1 4.005-.539c1.359.006 2.729.184 4.008.539 3.054-2.07 4.395-1.64 4.395-1.64.871 2.204.323 3.831.157 4.234 1.026 1.12 1.647 2.548 1.647 4.295 0 6.145-3.743 7.498-7.306 7.895.574.497 1.085 1.47 1.085 2.963 0 2.141-.019 3.864-.019 4.391 0 .426.288.925 1.099.768C27.421 29.457 32 23.462 32 16.395c0-8.837-7.164-16-16-16z"/>
    </symbol>
    <symbol id="icon-linkedin" viewBox="0 0 32 32">
      <path d="M29 0H3C1.35 0 0 1.35 0 3v26c0 1.65 1.35 3 3 3h26c1.65 0 3-1.35 3-3V3c0-1.65-1.35-3-3-3zM12 26H8V12h4v14zm-2-16c-1.106 0-2-.894-2-2s.894-2 2-2c1.106 0 2 .894 2 2s-.894 2-2 2zm16 16h-4v-8c0-1.106-.894-2-2-2s-2 .894-2 2v8h-4V12h4v2.481C18.825 13.35 20.087 12 21.5 12c2.488 0 4.5 2.238 4.5 5v9z"/>
    </symbol>
    <symbol id="icon-linkedin2" viewBox="0 0 32 32">
      <path d="M12 12h5.535v2.837h.079c.77-1.381 2.655-2.837 5.464-2.837C28.92 12 30 15.637 30 20.367V30h-5.769v-8.54c0-2.037-.042-4.657-3.001-4.657-3.005 0-3.463 2.218-3.463 4.509V30H12V12zM2 12h6v18H2V12zM8 7a3 3 0 1 1-6 0 3 3 0 0 1 6 0z"/>
    </symbol>
  </defs>
</svg>
