<svg xmlns="http://www.w3.org/2000/svg" aria-hidden="true" style="position:absolute;width:0;height:0;overflow:hidden">
  <defs>
    <symbol id="icon-close" viewBox="0 0 32 32">
      <path stroke-linecap="round" stroke-linejoin="round" stroke-width="2" d="M24 8 8 24M8 8l16 16"/>
    </symbol>
    <symbol id="icon-close-black" viewBox="0 0 32 32">
      <path d="M32 3.223 28.777 0 16 12.777 3.223 0 0 3.223 12.777 16 0 28.777 3.223 32 16 19.223 28.777 32 32 28.777 19.223 16 32 3.223z"/>
    </symbol>
    <symbol id="icon-fs" viewBox="0 0 32 32">
      <path stroke-linecap="round" stroke-linejoin="round" stroke-width="2.667" d="M24 2.667h-4a6.67 6.67 0 0 0-6.667 6.667v4h-4v5.333h4v10.667h5.333V18.667h4l1.333-5.333h-5.333v-4c0-.736.597-1.333 1.333-1.333h4V2.668"/>
    </symbol>
    <symbol id="icon-git" viewBox="0 0 32 32">
      <path stroke-linecap="round" stroke-linejoin="round" stroke-width="2.807" d="M19.385 29.474V23.86a6.74 6.74 0 0 0-1.403-4.912c4.21 0 8.421-2.807 8.421-7.719A7.587 7.587 0 0 0 25 6.317a10.38 10.38 0 0 0 0-4.912s-1.404 0-4.211 2.105a30.194 30.194 0 0 0-11.228 0C6.754 1.405 5.35 1.405 5.35 1.405a9.71 9.71 0 0 0 0 4.912 7.586 7.586 0 0 0-1.404 4.912c0 4.912 4.211 7.719 8.421 7.719a6.635 6.635 0 0 0-1.404 4.913v5.614"/>
    </symbol>
    <symbol id="icon-mes" viewBox="0 0 32 32">
      <path stroke-linecap="round" stroke-linejoin="round" stroke-width="2.667" d="m29.333 9.333-11.988 7.636a2.667 2.667 0 0 1-2.679 0l-12-7.636"/>
      <path stroke-linecap="round" stroke-linejoin="round" stroke-width="2.667" d="M5.333 5.333h21.333A2.667 2.667 0 0 1 29.333 8v16a2.667 2.667 0 0 1-2.667 2.667H5.333A2.667 2.667 0 0 1 2.666 24V8a2.667 2.667 0 0 1 2.667-2.667"/>
    </symbol>
    <symbol id="icon-burger" viewBox="0 0 32 32">
      <path stroke-linecap="round" stroke-linejoin="round" stroke-width="2.667" d="M5.333 6.667h21.333M5.333 16h21.333M5.333 25.333h21.333"/>
    </symbol>
    <symbol id="icon-download" viewBox="0 0 32 32">
      <path stroke-linecap="round" stroke-linejoin="round" stroke-width="2.667" d="M16 20V4m12 16v5.333A2.668 2.668 0 0 1 25.333 28H6.666a2.668 2.668 0 0 1-2.667-2.667V20"/>
      <path stroke-linecap="round" stroke-linejoin="round" stroke-width="2.667" d="M9.333 13.333 16 20l6.667-6.667"/>
    </symbol>
    <symbol id="icon-file" viewBox="0 0 32 32">
      <path d="M28.681 7.159c-.694-.947-1.662-2.053-2.724-3.116s-2.169-2.03-3.116-2.724C21.229.137 20.448 0 20 0H4.5A2.503 2.503 0 0 0 2 2.5v27C2 30.878 3.122 32 4.5 32h23c1.378 0 2.5-1.122 2.5-2.5V10c0-.448-.137-1.23-1.319-2.841zm-4.138-1.702A27.334 27.334 0 0 1 26.811 8H22V3.189a27.334 27.334 0 0 1 2.543 2.268zM28 29.5c0 .271-.229.5-.5.5h-23a.507.507 0 0 1-.5-.5v-27c0-.271.229-.5.5-.5H20v7a1 1 0 0 0 1 1h7v19.5z"/>
      <path d="M23 26H9a1 1 0 0 1 0-2h14a1 1 0 0 1 0 2zM23 22H9a1 1 0 0 1 0-2h14a1 1 0 0 1 0 2zM23 18H9a1 1 0 0 1 0-2h14a1 1 0 0 1 0 2z"/>
    </symbol>
    <symbol id="icon-search" viewBox="0 0 32 32">
      <path d="m31.008 27.231-7.58-6.447c-.784-.705-1.622-1.029-2.299-.998a11.954 11.954 0 0 0 2.87-7.787c0-6.627-5.373-12-12-12s-12 5.373-12 12 5.373 12 12 12c2.972 0 5.691-1.081 7.787-2.87-.031.677.293 1.515.998 2.299l6.447 7.58c1.104 1.226 2.907 1.33 4.007.23s.997-2.903-.23-4.007zM12 20a8 8 0 1 1 0-16 8 8 0 0 1 0 16z"/>
    </symbol>
    <symbol id="icon-bug" viewBox="0 0 32 32">
      <path d="M32 18v-2h-6.04c-.183-2.271-.993-4.345-2.24-6.008h5.061l2.189-8.758-1.94-.485-1.811 7.242H21.76l-.084-.064c.21-.609.324-1.263.324-1.944 0-3.305-2.686-5.984-6-5.984s-6 2.679-6 5.984c0 .68.114 1.334.324 1.944l-.084.064H4.781L2.97.749l-1.94.485 2.189 8.758H8.28C7.034 11.655 6.224 13.728 6.04 16H0v2h6.043a11.782 11.782 0 0 0 1.051 3.992H3.219L1.03 30.749l1.94.485 1.811-7.243h3.511c1.834 2.439 4.606 3.992 7.708 3.992s5.874-1.554 7.708-3.992h3.511l1.811 7.243 1.94-.485-2.189-8.757h-3.875A11.76 11.76 0 0 0 25.957 18H32z"/>
    </symbol>
    <symbol id="icon-checkmark" viewBox="0 0 32 32">
      <path d="M27 4 12 19l-7-7-5 5 12 12L32 9z"/>
    </symbol>
    <symbol id="icon-play3" viewBox="0 0 32 32">
      <path d="m6 4 20 12L6 28z"/>
    </symbol>
    <symbol id="icon-right" viewBox="0 0 32 32">
      <path d="M31 16 16 1v9H0v12h16v9z"/>
    </symbol>
    <symbol id="icon-left" viewBox="0 0 32 32">
      <path d="m1 16 15 15v-9h16V10H16V1z"/>
    </symbol>
    <symbol id="icon-telegram" viewBox="0 0 32 32">
      <path d="M16 0C7.162 0 0 7.162 0 16s7.162 16 16 16 16-7.163 16-16S24.837 0 16 0zm7.863 10.969-2.625 12.369c-.181.881-.712 1.087-1.45.681l-4-2.956-1.919 1.869c-.225.219-.4.4-.8.4-.519 0-.431-.194-.606-.688L11.1 18.169l-3.956-1.231c-.856-.262-.862-.85.194-1.269l15.412-5.95c.7-.319 1.381.169 1.113 1.25z"/>
    </symbol>
    <symbol id="icon-linkedin" viewBox="0 0 32 32">
      <path d="M29 0H3C1.35 0 0 1.35 0 3v26c0 1.65 1.35 3 3 3h26c1.65 0 3-1.35 3-3V3c0-1.65-1.35-3-3-3zM12 26H8V12h4v14zm-2-16c-1.106 0-2-.894-2-2s.894-2 2-2c1.106 0 2 .894 2 2s-.894 2-2 2zm16 16h-4v-8c0-1.106-.894-2-2-2s-2 .894-2 2v8h-4V12h4v2.481C18.825 13.35 20.087 12 21.5 12c2.488 0 4.5 2.238 4.5 5v9z"/>
    </symbol>
  </defs>
</svg>
